<svg width="16" height="16" viewBox="0 0 16 16" fill="none" xmlns="http://www.w3.org/2000/svg">
<g id="Icon / Quotes">
<path id="Vector" d="M9.57326 9.48683C9.1276 9.84614 8.57238 10.0421 7.99992 10.0421C7.42746 10.0421 6.87224 9.84614 6.42659 9.48683C6.29044 9.37367 6.11492 9.31923 5.93864 9.33548C5.76235 9.35174 5.59975 9.43735 5.48659 9.5735C5.37343 9.70964 5.31899 9.88516 5.33524 10.0614C5.35149 10.2377 5.43711 10.4003 5.57325 10.5135C6.25415 11.0819 7.11296 11.3933 7.99992 11.3933C8.88688 11.3933 9.7457 11.0819 10.4266 10.5135C10.5627 10.4003 10.6483 10.2377 10.6646 10.0614C10.6809 9.88516 10.6264 9.70964 10.5133 9.5735C10.4572 9.50608 10.3885 9.45037 10.3109 9.40953C10.2333 9.36869 10.1485 9.34353 10.0612 9.33548C9.88492 9.31923 9.7094 9.37367 9.57326 9.48683ZM6.13992 7.02683C6.26483 7.151 6.4338 7.22069 6.60992 7.22069C6.78605 7.22069 6.95501 7.151 7.07992 7.02683C7.20409 6.90192 7.27378 6.73295 7.27378 6.55683C7.27378 6.38071 7.20409 6.21174 7.07992 6.08683C6.6984 5.72482 6.19252 5.52302 5.66659 5.52302C5.14066 5.52302 4.63477 5.72482 4.25325 6.08683C4.18347 6.14659 4.12679 6.22014 4.08677 6.30285C4.04676 6.38556 4.02427 6.47565 4.02072 6.56746C4.01718 6.65927 4.03265 6.75083 4.06616 6.83638C4.09968 6.92193 4.15052 6.99963 4.21549 7.0646C4.28046 7.12957 4.35816 7.18041 4.44371 7.21392C4.52926 7.24744 4.62081 7.26291 4.71262 7.25936C4.80444 7.25582 4.89453 7.23333 4.97723 7.19331C5.05994 7.1533 5.13349 7.09662 5.19325 7.02683C5.25523 6.96434 5.32896 6.91475 5.4102 6.8809C5.49144 6.84706 5.57858 6.82963 5.66659 6.82963C5.7546 6.82963 5.84173 6.84706 5.92297 6.8809C6.00421 6.91475 6.07795 6.96434 6.13992 7.02683ZM11.7466 6.08683C11.3651 5.72482 10.8592 5.52302 10.3333 5.52302C9.80732 5.52302 9.30144 5.72482 8.91992 6.08683C8.8107 6.21436 8.75363 6.37841 8.76011 6.5462C8.76659 6.71398 8.83615 6.87314 8.95488 6.99187C9.07361 7.1106 9.23277 7.18016 9.40055 7.18664C9.56834 7.19312 9.73239 7.13605 9.85992 7.02683C9.9219 6.96434 9.99563 6.91475 10.0769 6.8809C10.1581 6.84706 10.2452 6.82963 10.3333 6.82963C10.4213 6.82963 10.5084 6.84706 10.5896 6.8809C10.6709 6.91475 10.7446 6.96434 10.8066 7.02683C10.9315 7.151 11.1005 7.22069 11.2766 7.22069C11.4527 7.22069 11.6217 7.151 11.7466 7.02683C11.8708 6.90192 11.9405 6.73295 11.9405 6.55683C11.9405 6.38071 11.8708 6.21174 11.7466 6.08683ZM7.99992 1.3335C6.68138 1.3335 5.39245 1.72449 4.29612 2.45703C3.19979 3.18957 2.34531 4.23077 1.84072 5.44894C1.33614 6.66711 1.20412 8.00756 1.46135 9.30077C1.71859 10.594 2.35353 11.7819 3.28588 12.7142C4.21823 13.6466 5.40611 14.2815 6.69932 14.5387C7.99253 14.796 9.33297 14.6639 10.5511 14.1594C11.7693 13.6548 12.8105 12.8003 13.5431 11.704C14.2756 10.6076 14.6666 9.31871 14.6666 8.00016C14.6666 7.12468 14.4942 6.25778 14.1591 5.44894C13.8241 4.6401 13.333 3.90517 12.714 3.28612C12.0949 2.66706 11.36 2.176 10.5511 1.84097C9.74231 1.50593 8.8754 1.3335 7.99992 1.3335ZM7.99992 13.3335C6.94509 13.3335 5.91394 13.0207 5.03688 12.4347C4.15982 11.8486 3.47623 11.0157 3.07256 10.0411C2.6689 9.0666 2.56328 7.99425 2.76907 6.95968C2.97485 5.92512 3.48281 4.97481 4.22869 4.22893C4.97457 3.48305 5.92487 2.9751 6.95944 2.76931C7.99401 2.56352 9.06636 2.66914 10.0409 3.07281C11.0154 3.47647 11.8484 4.16006 12.4344 5.03712C13.0205 5.91418 13.3333 6.94533 13.3333 8.00016C13.3333 9.41465 12.7714 10.7712 11.7712 11.7714C10.771 12.7716 9.41441 13.3335 7.99992 13.3335Z" fill="#F9FAFB"/>
</g>
</svg>
